<svg xmlns="http://www.w3.org/2000/svg" viewBox="0 0 1200 675" role="img" aria-labelledby="t d"><title id="t">Neon Pac-Man</title><desc id="d">A glowing maze character chased by colorful ghosts.</desc><defs><radialGradient id="b"><stop stop-color="#162a63"/><stop offset="1" stop-color="#02050f"/></radialGradient><linearGradient id="w" x2="0" y2="1"><stop stop-color="#56ecff"/><stop offset=".45" stop-color="#246cff"/><stop offset="1" stop-color="#12317d"/></linearGradient><filter id="g"><feGaussianBlur stdDeviation="8" result="x"/><feMerge><feMergeNode in="x"/><feMergeNode in="SourceGraphic"/></feMerge></filter></defs><rect width="1200" height="675" rx="38" fill="url(#b)"/><g fill="none" stroke="url(#w)" stroke-width="18" stroke-linecap="round" filter="url(#g)"><path d="M70 90h1060v495H70z"/><path d="M230 90v145h170V90M560 90v180h120V90M830 90v145h170V90"/><path d="M70 390h190v195M400 585V425h170M680 425h160v160M1000 390h130"/></g><g fill="#dffaff" filter="url(#g)"><circle cx="145" cy="338" r="6"/><circle cx="207" cy="338" r="6"/><circle cx="269" cy="338" r="6"/><circle cx="331" cy="338" r="6"/><circle cx="393" cy="338" r="6"/><circle cx="455" cy="338" r="6"/><circle cx="517" cy="338" r="6"/><circle cx="579" cy="338" r="6"/><circle cx="641" cy="338" r="6"/><circle cx="703" cy="338" r="6"/><circle cx="765" cy="338" r="6"/><circle cx="827" cy="338" r="6"/><circle cx="889" cy="338" r="6"/><circle cx="951" cy="338" r="6"/><circle cx="1013" cy="338" r="6"/></g><g transform="translate(250 338)" filter="url(#g)"><path d="M0 0a82 82 0 1 1 0-1L70-42Z" fill="#ffe457"/><circle cx="20" cy="-42" r="9" fill="#08112d"/></g><g transform="translate(700 290)" filter="url(#g)"><path d="M0 70V0a58 58 0 0 1 116 0v70l-19-17-19 17-20-17-19 17-20-17z" fill="#ff5b6e"/><g fill="white"><circle cx="38" cy="20" r="15"/><circle cx="80" cy="20" r="15"/></g><g fill="#17245b"><circle cx="43" cy="23" r="7"/><circle cx="85" cy="23" r="7"/></g></g><g transform="translate(865 290)" filter="url(#g)"><path d="M0 70V0a58 58 0 0 1 116 0v70l-19-17-19 17-20-17-19 17-20-17z" fill="#54e8ff"/><g fill="white"><circle cx="38" cy="20" r="15"/><circle cx="80" cy="20" r="15"/></g><g fill="#17245b"><circle cx="43" cy="23" r="7"/><circle cx="85" cy="23" r="7"/></g></g><text x="600" y="535" fill="white" font-family="system-ui,sans-serif" font-size="70" font-weight="900" text-anchor="middle" letter-spacing="8">NEON PAC-MAN</text><text x="600" y="585" fill="#54e8ff" font-family="system-ui,sans-serif" font-size="24" font-weight="800" text-anchor="middle" letter-spacing="12">MAZE CHASE</text></svg>